<!--?xml version="1.0" encoding="utf-8"?-->
<!-- Generator: Adobe Illustrator 19.1.1, SVG Export Plug-In . SVG Version: 6.00 Build 0)  -->
<svg version="1.1" id="_x31_0" xmlns="http://www.w3.org/2000/svg" xmlns:xlink="http://www.w3.org/1999/xlink" x="0px" y="0px" viewBox="0 0 512 512" style="width: 512px; height: 512px; opacity: 1;" xml:space="preserve">
<style type="text/css">
	.st0{fill:#374149;}
</style>
<g>
	<path class="st0" d="M171.462,171.671H25.239v180.387h146.222V171.671z M118.714,237.896c-0.658,1.321-1.464,2.567-2.489,3.884
		c-0.951,1.173-1.979,2.416-3.148,3.81l-9.786,11.331l-6.478,7.352h0.123l-0.123,0.145h23.954v14.87H75.862v-13.698l25.786-29.817
		c1.098-1.317,1.902-2.566,2.415-3.588c0.44-0.95,0.585-2.126,0.585-3.37c0-2.126-0.51-3.739-1.61-4.908
		c-1.024-1.173-2.563-1.687-4.686-1.687c-0.806,0-1.616,0.074-2.419,0.293c-0.736,0.222-1.39,0.584-1.978,1.102
		c-0.236,0.176-0.363,0.546-0.557,0.789c-0.053,0.074-0.109,0.151-0.162,0.233c-0.218,0.324-0.497,0.531-0.673,0.954
		c-0.366,0.881-0.588,1.979-0.588,3.374v1.902H75.862v-1.902c0-3.299,0.585-6.377,1.758-9.014c1.172-2.711,2.785-4.982,4.834-6.887
		c2.049-1.901,4.468-3.295,7.179-4.246c5.422-1.978,12.233-1.905,17.655,0c2.782,1.025,5.126,2.49,7.106,4.321
		c2.053,1.83,3.591,4.102,4.69,6.813c1.094,2.638,1.683,5.641,1.683,8.937c0,1.761-0.148,3.444-0.511,4.838
		C119.887,235.188,119.377,236.576,118.714,237.896z" style="fill: rgb(255, 255, 255);"></path>
	<path class="st0" d="M329.113,88.34H182.891v263.718h146.222V88.34z M236.218,150.854v-18.12l14.947-12.968h14.943v71.355h-16.116
		v-52.088l-8.373,7.257L236.218,150.854z" style="fill: rgb(255, 255, 255);"></path>
	<path class="st0" d="M486.761,196.892H340.538v155.166h146.222V196.892z M406.676,275.136c0.028,0.137,0.056,0.274,0.092,0.405
		c0.109,0.408,0.116,0.926,0.288,1.271c0.366,0.88,0.881,1.538,1.539,2.126c0.261,0.258,0.655,0.363,0.968,0.55
		c0.028,0.018,0.06,0.031,0.088,0.049c0.377,0.212,0.683,0.494,1.141,0.645c0.951,0.296,1.905,0.44,2.934,0.44
		c2.197,0,3.88-0.658,5.271-1.902c1.32-1.246,1.978-3.151,1.978-5.641c0-2.348-0.658-4.179-1.978-5.496
		c-1.243-1.317-3.152-1.975-5.641-1.975h-3.662v-14.434h3.662c2.418,0,4.102-0.588,5.056-1.757c1.098-1.321,1.613-2.859,1.613-4.838
		c0-2.342-0.588-3.954-1.831-5.053c-2.711-2.418-6.814-2.271-9.158-0.074c-1.173,1.102-1.831,2.637-1.905,4.686l-0.074,1.831
		h-16.042v-1.902c0.07-3.299,0.732-6.302,1.978-8.866c1.169-2.637,2.782-4.834,4.831-6.666c1.979-1.83,4.398-3.222,7.109-4.172
		c5.567-1.982,12.233-1.909,17.582,0.141c2.782,1.028,5.2,2.493,7.179,4.324c2.053,1.905,3.662,4.176,4.761,6.817
		c1.098,2.56,1.683,5.419,1.683,8.57c0,4.028-0.877,7.324-2.56,9.814c-1.042,1.458-2.236,2.694-3.542,3.817
		c-0.038,0.028-0.07,0.066-0.113,0.095c0.004,0.003,0.007,0.006,0.014,0.01c-0.035,0.031-0.063,0.074-0.098,0.106
		c1.616,1.173,3.077,2.711,4.323,4.472c1.906,2.782,2.856,6.447,2.856,10.912c0,3.591-0.585,6.817-1.831,9.598
		c-1.242,2.782-3.003,5.13-5.13,6.961c-2.194,1.831-4.682,3.222-7.542,4.099c-2.711,0.88-5.711,1.394-8.789,1.394
		c-2.934,0-5.863-0.441-8.574-1.243c-2.785-0.81-5.271-2.126-7.472-3.887c-2.197-1.831-4.028-4.102-5.348-6.814
		c-1.317-2.782-1.979-6.078-2.05-9.89l-0.074-1.902h16.042l0.074,1.83C406.359,274.188,406.563,274.614,406.676,275.136z" style="fill: rgb(255, 255, 255);"></path>
	<rect y="369.576" class="st0" width="512" height="54.085" style="fill: rgb(255, 255, 255);"></rect>
</g>
</svg>
